<?xml version="1.0" encoding="iso-8859-1"?>
<!-- Generator: Adobe Illustrator 18.0.0, SVG Export Plug-In . SVG Version: 6.00 Build 0)  -->
<!DOCTYPE svg PUBLIC "-//W3C//DTD SVG 1.1//EN" "http://www.w3.org/Graphics/SVG/1.1/DTD/svg11.dtd">
<svg version="1.1" id="_x30_" xmlns="http://www.w3.org/2000/svg" xmlns:xlink="http://www.w3.org/1999/xlink" x="0px" y="0px"
	 viewBox="0 0 512 512" style="enable-background:new 0 0 512 512;" xml:space="preserve">
<g>
	<rect style="opacity:0;fill:#FFFFFF;" width="512" height="512"/>
	<path style="opacity:0.1;fill:#040000;" d="M512,281.754V512H216.269L103.526,399.258l-7.987-7.987
		c-0.922-1.792-1.485-3.789-1.741-5.888c-0.051-0.614-0.102-1.28-0.102-1.946v-1.69L211.763,263.68l44.646-44.595l69.888-69.888
		l57.498,4.352L512,281.754z"/>
	<g>
		<path style="fill:#CBB482;" d="M372.737,386.82H139.248c-26.354,0-47.916-21.563-47.916-47.917V196.635
			c0-26.354,21.562-47.917,47.916-47.917h233.489c26.354,0,47.917,21.563,47.917,47.917v142.268
			C420.654,365.257,399.091,386.82,372.737,386.82z"/>
		<path style="fill:#CBB482;" d="M223.526,267.769h-84.278c-26.354,0-47.916-21.562-47.916-47.917v-70.633
			c0-26.354,21.562-47.916,47.916-47.916h84.278c26.354,0,47.917,21.562,47.917,47.916v70.633
			C271.443,246.206,249.881,267.769,223.526,267.769z"/>
		<rect x="115.551" y="176.689" style="fill:#FFFFFF;" width="280.883" height="145.318"/>
		<path style="fill:#CBB482;" d="M420.676,221.374v170.902c0,10.116-8.306,18.421-18.421,18.421H109.75
			c-2.929,0-5.75-0.692-8.199-1.97c-3.62-1.81-6.549-4.739-8.306-8.306c-0.959-1.863-1.544-3.94-1.81-6.122
			c-0.053-0.639-0.106-1.331-0.106-2.023v-103.34l24.224-24.225l2.13-2.129l41.208-41.208H420.676z"/>
		<path style="fill:#B19A74;" d="M264.36,221.374l-46.372,46.372l-54.253,54.253l-54.358,54.359L91.435,394.3
			c-0.053-0.639-0.106-1.331-0.106-2.023v-103.34l24.224-24.225l2.13-2.129l41.208-41.208H264.36z"/>
		<polygon style="fill:#FBE8BE;" points="158.867,221.376 91.324,288.918 158.867,288.918 		"/>
		<rect x="287.276" y="354.755" style="fill:#ECE4D9;" width="109.159" height="36.841"/>
	</g>
</g>
</svg>
